<svg width="475" height="434" viewBox="0 0 475 434" fill="none" xmlns="http://www.w3.org/2000/svg">
<g opacity="0.2" clip-path="url(#clip0_334_3196)">
<path d="M375.819 186.901L303.998 252.927L240.248 232.426L375.819 186.901Z" stroke="#3FAF5A" stroke-miterlimit="10"/>
<path d="M303.998 252.927L250.14 323.944L240.914 232.903L303.998 252.927Z" stroke="#3FAF5A" stroke-miterlimit="10"/>
<path opacity="0.5" d="M175.464 311.697L250.14 323.944L240.914 232.903L175.464 311.697Z" fill="#3FAF5A"/>
<path d="M108.918 334.429L175.464 311.698L-3.35655 286.232L108.918 334.429Z" stroke="#3FAF5A" stroke-miterlimit="10"/>
<path d="M240.914 232.903L165.481 216.094L175.464 311.697L240.914 232.903Z" stroke="#3FAF5A" stroke-miterlimit="10"/>
<path d="M-3.35656 286.232L-57.4144 165.11L52.5622 234.788L-3.35656 286.232Z" stroke="#3FAF5A" stroke-miterlimit="10"/>
<path d="M175.464 311.697L165.481 216.094L52.5622 234.788L175.464 311.697Z" stroke="#3FAF5A" stroke-miterlimit="10"/>
<path d="M-3.35655 286.232L52.5622 234.788L175.464 311.697L-3.35655 286.232Z" stroke="#3FAF5A" stroke-miterlimit="10"/>
<path d="M102.048 165.67L52.5622 234.788L-57.4144 165.11L102.048 165.67Z" stroke="#3FAF5A" stroke-miterlimit="10"/>
<path opacity="0.5" d="M165.481 216.094L102.048 165.67L52.5622 234.788L165.481 216.094Z" fill="#3FAF5A"/>
<path d="M380.841 185.319L294.199 158.462L240.914 232.903L380.841 185.319Z" stroke="#3FAF5A" stroke-miterlimit="10"/>
<path d="M165.481 216.094L294.199 158.462L240.914 232.903L165.481 216.094Z" stroke="#3FAF5A" stroke-miterlimit="10"/>
<path d="M374.909 30.2676L361.339 111.025L267.307 59.7987L374.909 30.2676Z" stroke="#3FAF5A" stroke-miterlimit="10"/>
<path d="M294.199 158.462L361.339 111.025L267.307 59.7987L294.199 158.462Z" stroke="#3FAF5A" stroke-miterlimit="10"/>
<path d="M380.654 185.163L361.339 111.025L294.199 158.462L380.654 185.163Z" stroke="#3FAF5A" stroke-miterlimit="10"/>
<path d="M374.909 30.2676L296.128 -70.3448L267.307 59.7987L374.909 30.2676Z" stroke="#3FAF5A" stroke-miterlimit="10"/>
<path opacity="0.5" d="M267.307 59.7987L205.467 132.139L294.199 158.462L267.307 59.7987Z" fill="#3FAF5A"/>
<path d="M205.467 132.139L165.481 216.094L294.199 158.462L205.467 132.139Z" stroke="#3FAF5A" stroke-miterlimit="10"/>
<path d="M102.048 165.67L165.481 216.094L205.467 132.139L102.048 165.67Z" stroke="#3FAF5A" stroke-miterlimit="10"/>
<path d="M297.265 -70.5387L208.518 -82.7966L167.015 -0.934428L297.265 -70.5387Z" stroke="#3FAF5A" stroke-miterlimit="10"/>
<path d="M267.307 59.7987L167.015 -0.934427L297.265 -70.5387L267.307 59.7987Z" stroke="#3FAF5A" stroke-miterlimit="10"/>
<path d="M205.467 132.139L143.744 84.9439L267.307 59.7987L205.467 132.139Z" stroke="#3FAF5A" stroke-miterlimit="10"/>
<path d="M167.015 -0.934415L143.744 84.9439L267.307 59.7987L167.015 -0.934415Z" stroke="#3FAF5A" stroke-miterlimit="10"/>
<path d="M208.518 -82.7966L130.05 -110.815L167.015 -0.93443L208.518 -82.7966Z" stroke="#3FAF5A" stroke-miterlimit="10"/>
<path d="M143.744 84.9439L102.048 165.67L205.467 132.139L143.744 84.9439Z" stroke="#3FAF5A" stroke-miterlimit="10"/>
<path d="M-57.4144 165.11L-38.5317 95.1967L41.6602 105.354L-57.4144 165.11Z" stroke="#3FAF5A" stroke-miterlimit="10"/>
<path d="M102.048 165.67L41.6602 105.354L-57.4144 165.11L102.048 165.67Z" stroke="#3FAF5A" stroke-miterlimit="10"/>
<path d="M143.744 84.9439L41.6602 105.354L102.048 165.67L143.744 84.9439Z" stroke="#3FAF5A" stroke-miterlimit="10"/>
<path d="M167.015 -0.934411L92.3256 -6.1472L143.744 84.9439L167.015 -0.934411Z" stroke="#3FAF5A" stroke-miterlimit="10"/>
<path d="M167.015 -0.934429L130.05 -110.815L92.3256 -6.14722L167.015 -0.934429Z" stroke="#3FAF5A" stroke-miterlimit="10"/>
<path opacity="0.5" d="M41.6602 105.354L92.3256 -6.14721L143.744 84.9439L41.6602 105.354Z" fill="#3FAF5A"/>
<path d="M14.6357 -57.7323L2.41719 2.8816L92.3256 -6.14722L14.6357 -57.7323Z" stroke="#3FAF5A" stroke-miterlimit="10"/>
<path d="M41.6602 105.354L-48.5481 34.7554L2.4172 2.88159L41.6602 105.354Z" stroke="#3FAF5A" stroke-miterlimit="10"/>
<path d="M-48.5481 34.7554L-38.5316 95.1967L41.6602 105.354L-48.5481 34.7554Z" stroke="#3FAF5A" stroke-miterlimit="10"/>
<path d="M244.07 321.619C242.741 323.873 243.491 326.778 245.745 328.107C247.999 329.436 250.904 328.687 252.233 326.433C253.562 324.179 252.812 321.275 250.558 319.946C248.304 318.616 245.399 319.366 244.07 321.619Z" fill="#3FAF5A"/>
<path d="M162.506 213.667C161.177 215.921 161.927 218.826 164.181 220.155C166.435 221.484 169.34 220.735 170.669 218.481C171.998 216.227 171.248 213.323 168.994 211.994C166.74 210.664 163.835 211.414 162.506 213.667Z" fill="#3FAF5A"/>
<path d="M97.7338 163.288C96.4048 165.542 97.1547 168.446 99.4087 169.776C101.663 171.105 104.568 170.356 105.897 168.102C107.226 165.848 106.476 162.944 104.222 161.614C101.968 160.285 99.0629 161.034 97.7338 163.288Z" fill="#3FAF5A"/>
<path d="M141.713 88.3726C139.583 86.8473 139.096 83.8932 140.614 81.7599C142.139 79.6306 145.093 79.1432 147.227 80.6616C149.356 82.1869 149.844 85.141 148.326 87.2743C146.801 89.4035 143.836 89.8938 141.713 88.3726Z" fill="#3FAF5A"/>
<path d="M200.89 129.704C199.561 131.957 200.31 134.862 202.564 136.191C204.819 137.521 207.723 136.771 209.052 134.517C210.381 132.264 209.632 129.359 207.377 128.03C205.123 126.701 202.219 127.45 200.89 129.704Z" fill="#3FAF5A"/>
<path d="M236.874 230.46C235.545 232.714 236.295 235.618 238.549 236.948C240.803 238.277 243.708 237.527 245.037 235.274C246.366 233.02 245.616 230.115 243.362 228.786C241.108 227.457 238.203 228.206 236.874 230.46Z" fill="#3FAF5A"/>
<path d="M299.247 252.051C297.918 254.304 298.668 257.209 300.922 258.538C303.176 259.868 306.081 259.118 307.41 256.864C308.739 254.611 307.989 251.706 305.735 250.377C303.481 249.048 300.576 249.797 299.247 252.051Z" fill="#3FAF5A"/>
<path d="M376.014 182.481C374.685 184.735 375.434 187.639 377.689 188.968C379.943 190.298 382.847 189.548 384.176 187.295C385.505 185.041 384.756 182.136 382.502 180.807C380.247 179.478 377.343 180.227 376.014 182.481Z" fill="#3FAF5A"/>
<path d="M172.102 309.625C170.773 311.878 171.522 314.783 173.776 316.112C176.031 317.442 178.935 316.692 180.264 314.438C181.593 312.185 180.844 309.28 178.589 307.951C176.335 306.622 173.431 307.371 172.102 309.625Z" fill="#3FAF5A"/>
<path d="M-7.82035 283.236C-9.14942 285.49 -8.39955 288.394 -6.14546 289.724C-3.89138 291.053 -0.986663 290.304 0.34241 288.05C1.67148 285.796 0.921617 282.892 -1.33247 281.562C-3.58655 280.233 -6.49128 280.982 -7.82035 283.236Z" fill="#3FAF5A"/>
<path d="M289.983 155.763C288.654 158.017 289.404 160.921 291.658 162.25C293.912 163.58 296.817 162.83 298.146 160.577C299.475 158.323 298.725 155.418 296.471 154.089C294.217 152.76 291.312 153.509 289.983 155.763Z" fill="#3FAF5A"/>
<path d="M49.6941 239.005C47.5645 237.48 47.0765 234.526 48.5948 232.392C50.1199 230.263 53.0742 229.776 55.2079 231.294C57.3375 232.819 57.8254 235.773 56.3072 237.907C54.7821 240.036 51.8237 240.53 49.6941 239.005Z" fill="#3FAF5A"/>
<path d="M37.7614 103.315C36.4324 105.569 37.1822 108.474 39.4363 109.803C41.6904 111.132 44.5951 110.383 45.9242 108.129C47.2533 105.875 46.5034 102.971 44.2493 101.642C41.9952 100.312 39.0905 101.062 37.7614 103.315Z" fill="#3FAF5A"/>
</g>
<defs>
<clipPath id="clip0_334_3196">
<rect width="465.398" height="451.004" fill="white" transform="translate(474.893 33.0984) rotate(120.529)"/>
</clipPath>
</defs>
</svg>
