<svg width="47" height="55" viewBox="0 0 47 55" fill="none" xmlns="http://www.w3.org/2000/svg">
<path d="M11.0624 24.9166C7.47909 24.9166 6.58325 28.5 6.58325 28.5V30.2916C6.58325 33.875 8.55409 36.5625 11.0624 36.5625C13.5708 36.5625 15.5416 33.7854 15.5416 30.2916V28.5C15.5416 28.5 14.6458 24.9166 11.0624 24.9166Z" stroke="#3FAF5A" stroke-width="2" stroke-miterlimit="10" stroke-linejoin="round"/>
<path d="M19.1251 49.1041V41.9375C19.1251 39.9666 17.5126 38.3541 15.5417 38.3541C15.5417 38.3541 12.8542 38.3541 12.8542 35.6666" stroke="#3FAF5A" stroke-width="2" stroke-miterlimit="10" stroke-linejoin="round"/>
<path d="M9.27083 35.6666C9.27083 38.3541 6.58333 38.3541 6.58333 38.3541C4.6125 38.3541 3 39.9666 3 41.9375V49.1041" stroke="#3FAF5A" stroke-width="2" stroke-miterlimit="10" stroke-linejoin="round"/>
<path d="M6.58325 42.8333V49.1041" stroke="#3FAF5A" stroke-width="2" stroke-miterlimit="10" stroke-linejoin="round"/>
<path d="M15.5417 42.8333V49.1041" stroke="#3FAF5A" stroke-width="2" stroke-miterlimit="10" stroke-linejoin="round"/>
<path d="M36.1457 24.9166C32.5623 24.9166 31.6665 28.5 31.6665 28.5V30.2916C31.6665 33.875 33.6373 36.5625 36.1457 36.5625C38.654 36.5625 40.6248 33.7854 40.6248 30.2916V28.5C40.6248 28.5 39.729 24.9166 36.1457 24.9166Z" stroke="#3FAF5A" stroke-width="2" stroke-miterlimit="10" stroke-linejoin="round"/>
<path d="M44.2083 49.1041V41.9375C44.2083 39.9666 42.5958 38.3541 40.625 38.3541C40.625 38.3541 37.9375 38.3541 37.9375 35.6666" stroke="#3FAF5A" stroke-width="2" stroke-miterlimit="10" stroke-linejoin="round"/>
<path d="M34.3541 35.6666C34.3541 38.3541 31.6666 38.3541 31.6666 38.3541C29.6958 38.3541 28.0833 39.9666 28.0833 41.9375V49.1041" stroke="#3FAF5A" stroke-width="2" stroke-miterlimit="10" stroke-linejoin="round"/>
<path d="M31.6665 42.8333V49.1041" stroke="#3FAF5A" stroke-width="2" stroke-miterlimit="10" stroke-linejoin="round"/>
<path d="M40.625 42.8333V49.1041" stroke="#3FAF5A" stroke-width="2" stroke-miterlimit="10" stroke-linejoin="round"/>
<path d="M23.6042 7C20.0208 7 19.125 10.5833 19.125 10.5833V12.375C19.125 15.9583 21.0958 18.6458 23.6042 18.6458C26.1125 18.6458 28.0833 15.8687 28.0833 12.375V10.5833C28.0833 10.5833 27.1875 7 23.6042 7Z" stroke="#3FAF5A" stroke-width="2" stroke-miterlimit="10" stroke-linejoin="round"/>
<path d="M31.6668 31.1875V24.0208C31.6668 22.05 30.0543 20.4375 28.0835 20.4375C28.0835 20.4375 25.396 20.4375 25.396 17.75" stroke="#3FAF5A" stroke-width="2" stroke-miterlimit="10" stroke-linejoin="round"/>
<path d="M21.8126 17.75C21.8126 20.4375 19.1251 20.4375 19.1251 20.4375C17.1542 20.4375 15.5417 22.05 15.5417 24.0208V31.1875" stroke="#3FAF5A" stroke-width="2" stroke-miterlimit="10" stroke-linejoin="round"/>
<path d="M23.604 22.2291V38.3541" stroke="#3FAF5A" stroke-width="2" stroke-miterlimit="10" stroke-linejoin="round"/>
<path d="M23.604 40.1458V41.9374" stroke="#3FAF5A" stroke-width="2" stroke-miterlimit="10" stroke-linejoin="round"/>
<path d="M20.0208 32.0833V28.5H27.1874V32.0833" stroke="#3FAF5A" stroke-width="2" stroke-miterlimit="10" stroke-linejoin="round"/>
<path d="M20.0208 33.875V35.6667" stroke="#3FAF5A" stroke-width="2" stroke-miterlimit="10" stroke-linejoin="round"/>
<path d="M27.1875 33.875V35.6667" stroke="#3FAF5A" stroke-width="2" stroke-miterlimit="10" stroke-linejoin="round"/>
</svg>
