<svg width="16" height="16" viewBox="0 0 16 16" fill="none" xmlns="http://www.w3.org/2000/svg">
<path d="M6.1445 8.68559C5.95288 8.68559 5.80003 8.85048 5.81582 9.04624C5.98207 11.1071 6.65103 13.0657 7.75328 14.5411C7.87853 14.7087 8.12151 14.7087 8.24675 14.5411C9.34899 13.0657 10.0179 11.1071 10.1841 9.04624C10.1999 8.85048 10.0471 8.68559 9.85546 8.68559H6.1445Z" fill="white"/>
<path d="M7.75328 1.45923C7.87853 1.29158 8.12151 1.29158 8.24675 1.45923C9.34899 2.93461 10.0179 4.89319 10.1841 6.95408C10.1999 7.14984 10.0471 7.31473 9.85546 7.31473H6.1445C5.95288 7.31473 5.80003 7.14984 5.81582 6.95408C5.98207 4.89319 6.65104 2.93461 7.75328 1.45923Z" fill="white"/>
<g opacity="0.5">
<path d="M6.04291 1.56568C6.07409 1.5118 6.02503 1.44637 5.96675 1.46523C3.51225 2.25919 1.66823 4.45228 1.33471 7.12643C1.32217 7.22698 1.3996 7.31471 1.49848 7.31471H4.12795C4.30631 7.31471 4.45282 7.17113 4.46554 6.98875C4.59965 5.06524 5.1184 3.16365 6.04291 1.56568Z" fill="white"/>
<path d="M1.49847 8.68558C1.3996 8.68558 1.32217 8.77332 1.33471 8.87387C1.66823 11.548 3.51225 13.7411 5.96675 14.5351C6.02503 14.5539 6.07409 14.4885 6.04292 14.4346C5.1184 12.8366 4.59965 10.9351 4.46554 9.01154C4.45282 8.82916 4.30631 8.68558 4.12795 8.68558H1.49847Z" fill="white"/>
<path d="M9.95716 14.4346C9.92599 14.4885 9.97505 14.5539 10.0333 14.5351C12.4878 13.7411 14.3319 11.548 14.6654 8.87387C14.6779 8.77332 14.6005 8.68558 14.5016 8.68558H11.8721C11.6938 8.68558 11.5473 8.82916 11.5345 9.01154C11.4004 10.9351 10.8817 12.8366 9.95716 14.4346Z" fill="white"/>
<path d="M14.5016 7.31471C14.6005 7.31471 14.6779 7.22698 14.6654 7.12643C14.3319 4.45228 12.4878 2.25919 10.0333 1.46523C9.97505 1.44638 9.926 1.5118 9.95717 1.56568C10.8817 3.16365 11.4004 5.06524 11.5345 6.98875C11.5473 7.17113 11.6938 7.31471 11.8721 7.31471H14.5016Z" fill="white"/>
</g>
</svg>
