<svg width="46" height="9" viewBox="0 0 46 9" fill="none" xmlns="http://www.w3.org/2000/svg">
<path d="M4.1756 3.72788H8.22913C8.21888 4.39922 8.16977 4.93657 8.08156 5.34018C7.9595 5.88946 7.74088 6.38629 7.42548 6.83043C6.69311 7.8577 5.61482 8.37146 4.19085 8.37146C2.94974 8.37146 1.94106 7.99002 1.16459 7.22713C0.388116 6.46425 0 5.46415 0 4.22637C0 2.9886 0.39074 1.92843 1.17222 1.15696C1.9537 0.385734 2.98359 0 4.2619 0C5.94691 0 7.127 0.732372 7.80168 2.19711L5.86395 3.00576C5.55189 2.17517 4.98568 1.75964 4.16535 1.75964C3.53477 1.75964 3.02769 2.02236 2.64458 2.54803C2.29866 3.02269 2.12582 3.58556 2.12582 4.23663C2.12582 4.8877 2.30391 5.45724 2.65984 5.92522C3.04963 6.43731 3.56338 6.69311 4.20087 6.69311C4.6586 6.69311 5.03145 6.5813 5.31968 6.35745C5.62817 6.11666 5.80292 5.77431 5.84345 5.33017H4.17536V3.72812L4.1756 3.72788Z" fill="#F2B705"/>
<path d="M14.791 4.89267L17.2577 8.11203H14.7147L12.7922 5.09101H12.7667V8.11203H10.7272V0.259338H13.7787C14.5993 0.259338 15.2484 0.452683 15.7267 0.839131C16.2488 1.25967 16.5098 1.87165 16.5098 2.67506C16.5098 3.23792 16.3623 3.71949 16.0674 4.11953C15.7553 4.54007 15.33 4.79778 14.7907 4.89267H14.791ZM12.7667 1.82063V3.77861H12.965C13.911 3.77861 14.384 3.4532 14.384 2.80212C14.384 2.15105 13.911 1.82063 12.965 1.82063H12.7667Z" fill="#F2B705"/>
<path d="M23.3261 0C24.5026 0 25.5129 0.37477 26.3574 1.12406C27.2321 1.90387 27.6695 2.87536 27.6695 4.03828C27.6695 5.30967 27.2635 6.34981 26.4515 7.15847C25.6395 7.96713 24.5977 8.37146 23.3263 8.37146C22.0549 8.37146 21.0131 7.96713 20.2011 7.15847C19.3891 6.34981 18.9829 5.30967 18.9829 4.03828C18.9829 2.88203 19.4254 1.91246 20.3103 1.12907C21.1578 0.376438 22.1632 0 23.3263 0H23.3261ZM23.3261 1.9785C22.7463 1.9785 22.2359 2.17684 21.7953 2.57354C21.3376 2.98383 21.1087 3.47541 21.1087 4.04853C21.1087 4.6996 21.3138 5.24888 21.724 5.69636C22.1479 6.161 22.6819 6.39321 23.3261 6.39321C23.9703 6.39321 24.5043 6.161 24.9282 5.69636C25.3384 5.24888 25.5435 4.6996 25.5435 4.04853C25.5435 3.47207 25.3146 2.98049 24.8569 2.57354C24.4161 2.17684 23.9059 1.9785 23.3261 1.9785Z" fill="#F2B705"/>
<path d="M34.9485 0.259338H36.988V4.67381C36.988 5.31797 36.9489 5.81146 36.871 6.1538C36.7522 6.67257 36.5184 7.10312 36.1691 7.4457C35.5724 8.02883 34.7044 8.32039 33.5651 8.32039C32.4257 8.32039 31.5577 8.02883 30.961 7.4457C30.6084 7.10335 30.3726 6.67257 30.2541 6.1538C30.1762 5.81814 30.1371 5.32488 30.1371 4.67381V0.259338H32.1766V4.39417C32.1766 5.05883 32.2443 5.54183 32.38 5.84364C32.5867 6.30137 32.9817 6.53024 33.5651 6.53024C34.1484 6.53024 34.5432 6.30137 34.7501 5.84364C34.8825 5.54874 34.9485 5.0655 34.9485 4.39417V0.259338Z" fill="#F2B705"/>
<path d="M39.8419 8.11203V0.259338H42.9647C43.8497 0.259338 44.5379 0.464603 45.0295 0.874653C45.5585 1.31879 45.8229 1.97487 45.8229 2.84289C45.8229 4.61969 44.8955 5.50797 43.041 5.50797H41.8814V8.11203H39.8419ZM41.8814 1.90216V3.86015H42.2274C42.7223 3.86015 43.0596 3.82129 43.2394 3.74309C43.5445 3.61078 43.6971 3.33113 43.6971 2.90392C43.6971 2.47671 43.5512 2.17322 43.2596 2.03423C43.0732 1.94602 42.729 1.90192 42.2271 1.90192H41.8812L41.8814 1.90216Z" fill="#F2B705"/>
</svg>
