<svg xmlns="http://www.w3.org/2000/svg" width="26" height="10" viewBox="0 0 26 10" fill="none">
  <path d="M25 8C25.5523 8 26 8.44772 26 9C26 9.55229 25.5523 10 25 10L1 10C0.447716 10 -6.78526e-08 9.55228 -4.37114e-08 9C-1.95703e-08 8.44771 0.447715 8 1 8L25 8Z" fill="#3FAF5A"/>
  <path d="M25.364 7.94963C25.7545 8.34016 25.7545 8.97332 25.364 9.36385C24.9734 9.75437 24.3403 9.75437 23.9497 9.36385L16.7071 2.1212C16.3166 1.73068 16.3166 1.09752 16.7071 0.706992C17.0976 0.316467 17.7308 0.316467 18.1213 0.706992L25.364 7.94963Z" fill="#3FAF5A"/>
</svg>
