<svg width="16" height="16" viewBox="0 0 16 16" fill="none" xmlns="http://www.w3.org/2000/svg">
<path d="M2 6.15283V10.6669C2 11.7715 2.89543 12.6669 4 12.6669H12C13.1046 12.6669 14 11.7715 14 10.6669V6.15283L11.4136 8.00023H12C12.3682 8.00023 12.6667 8.29871 12.6667 8.6669C12.6667 9.03509 12.3682 9.33356 12 9.33356H4C3.63181 9.33356 3.33333 9.03509 3.33333 8.6669C3.33333 8.29871 3.63181 8.00023 4 8.00023H4.58636L2 6.15283Z" fill="white"/>
<path opacity="0.5" d="M4.00007 3.3335H12.0001C12.7831 3.3335 13.461 3.78344 13.7893 4.43887C13.8172 4.49463 13.8426 4.55187 13.8654 4.61044L9.2936 7.87598C9.18054 7.95675 9.04506 8.00016 8.90611 8.00016H7.09402C6.95507 8.00016 6.81959 7.95675 6.70653 7.87598L2.13477 4.61044C2.15749 4.55187 2.18289 4.49463 2.21081 4.43888C2.53917 3.78344 3.21707 3.3335 4.00007 3.3335Z" fill="white"/>
</svg>
