<svg width="16" height="16" viewBox="0 0 16 16" fill="none" xmlns="http://www.w3.org/2000/svg">
<path d="M8.00004 9.33347C7.83938 9.33347 7.68062 9.32535 7.52414 9.3095C7.42322 9.29928 7.33337 9.37697 7.33337 9.47841V14.0001C7.33337 14.3683 7.63185 14.6668 8.00004 14.6668C8.36823 14.6668 8.66671 14.3683 8.66671 14.0001V9.47841C8.66671 9.37697 8.57686 9.29928 8.47594 9.3095C8.31946 9.32535 8.1607 9.33347 8.00004 9.33347Z" fill="white"/>
<path opacity="0.5" d="M7.99996 8.00016C6.15901 8.00016 4.66663 6.50778 4.66663 4.66683C4.66663 2.82588 6.15901 1.3335 7.99996 1.3335C9.84091 1.3335 11.3333 2.82588 11.3333 4.66683C11.3333 6.50778 9.84091 8.00016 7.99996 8.00016Z" fill="white"/>
</svg>
