<svg width="16" height="16" viewBox="0 0 16 16" fill="none" xmlns="http://www.w3.org/2000/svg">
<path d="M9.07899 10.7068L6.92409 10.7084C6.23048 10.709 5.66774 11.2305 5.66716 11.8733C5.66664 12.4478 5.21394 12.9367 4.6012 13.0246L2.52739 13.3218C1.89904 13.4119 1.33285 12.9618 1.33337 12.3727C1.33416 11.4982 1.63312 10.6244 2.3373 10.0413C5.40797 7.49839 10.1755 7.15177 13.6461 10.0263C14.3566 10.6147 14.6675 11.4951 14.6667 12.3789C14.6662 12.9593 14.1075 13.4037 13.4885 13.3159L11.3977 13.0193C10.7851 12.9324 10.3333 12.4442 10.3338 11.8697C10.3344 11.2269 9.7726 10.7062 9.07899 10.7068Z" fill="white"/>
<g opacity="0.5">
<path d="M5.63319 4.29256C6.9388 3.01359 9.0612 3.01359 10.3668 4.29256C10.6298 4.55021 11.0519 4.54586 11.3096 4.28284C11.5672 4.01982 11.5629 3.59774 11.2999 3.34008C9.47585 1.55331 6.52415 1.55331 4.70015 3.34008C4.43713 3.59774 4.43278 4.01982 4.69043 4.28284C4.94808 4.54586 5.37017 4.55021 5.63319 4.29256Z" fill="white"/>
<path d="M7.52208 6.14291C7.78448 5.88585 8.21552 5.88585 8.47792 6.14291C8.74094 6.40056 9.16303 6.39621 9.42068 6.13319C9.67833 5.87017 9.67398 5.44808 9.41096 5.19043C8.63017 4.42557 7.36983 4.42557 6.58904 5.19043C6.32602 5.44808 6.32166 5.87017 6.57932 6.13319C6.83697 6.39621 7.25906 6.40056 7.52208 6.14291Z" fill="white"/>
</g>
</svg>
