<svg width="19" height="19" viewBox="0 0 19 19" fill="none" xmlns="http://www.w3.org/2000/svg">
<path d="M9.64083 8.46091H19C18.9764 9.98463 18.8628 11.2045 18.6595 12.1202C18.3776 13.3668 17.8726 14.4943 17.1447 15.5024C15.4537 17.834 12.9641 19 9.6761 19C6.81087 19 4.48172 18.1343 2.68913 16.4028C0.896294 14.6713 0 12.4014 0 9.59229C0 6.78322 0.902133 4.37678 2.70664 2.62616C4.51115 0.875546 6.88895 0 9.84052 0C13.7312 0 16.4556 1.66215 18.0135 4.9867L13.5395 6.82195C12.8193 4.93673 11.512 3.994 9.61748 3.994C8.16151 3.994 6.99086 4.59053 6.10624 5.78311C5.30772 6.86069 4.90858 8.13791 4.90858 9.61548C4.90858 11.0931 5.31964 12.3858 6.14151 13.4479C7.04169 14.6098 8.22767 15.1908 9.69969 15.1908C10.7565 15.1908 11.6175 14.9369 12.283 14.4291C12.9954 13.8828 13.3987 13.1057 13.4926 12.0975H9.64083V8.46139V8.46091Z" fill="white"/>
</svg>
