<svg width="46" height="57" viewBox="0 0 46 57" fill="none" xmlns="http://www.w3.org/2000/svg">
<path d="M42.05 51.7234C39.1489 52.9996 35.9629 53.704 32.6204 53.704C19.831 53.704 9.33849 43.3873 8.29441 30.2544V30.2539C8.30219 30.1787 7.56853 23.7419 12.0512 24.213C12.0512 24.213 13.1653 24.2853 13.5299 25.2591C13.7011 25.7153 13.6356 26.2288 13.3777 26.6414C13.0937 27.096 12.6579 27.8962 12.5981 28.5994C12.5289 29.4267 13.3671 30.0434 14.1052 29.6798C14.447 29.5124 14.8116 29.1433 15.1046 28.3934C15.4374 27.5406 15.8952 26.7429 16.4864 26.048C16.8717 25.5946 17.2815 25.1767 17.5818 25.0364C18.1901 24.753 18.3468 23.671 17.6002 23.2564C17.2864 23.0828 16.9051 23.0935 16.5902 23.2626C16.1552 23.4955 15.3516 23.8579 15.0205 23.565C14.5546 23.1528 14.0537 22.3234 13.198 22.1498C13.198 22.1498 13.58 20.6181 18.0331 20.358C18.8122 20.3128 19.587 20.2132 20.3487 20.0437C20.7642 19.9515 21.1556 19.8446 21.3659 19.7389C21.9482 19.4443 22.9378 20.2099 22.7635 20.916C22.7635 20.916 22.1231 21.2101 21.5412 21.1513C20.9585 21.0924 19.5616 21.5635 19.9111 22.6817C20.1735 23.5231 21.6669 23.5576 22.3907 23.5226C22.5697 23.514 22.748 23.4943 22.9253 23.4666C23.3851 23.3954 24.9084 23.2573 26.6419 24.157C26.9702 24.3273 27.3605 24.3446 27.6909 24.1808C27.9498 24.0529 28.1836 23.8162 28.2126 23.3819C28.2573 22.7146 27.7903 22.125 27.1445 21.9831C26.4276 21.8254 25.3993 21.4487 25.034 20.5628C24.4518 19.1505 24.2186 18.8559 24.2186 18.8559C24.2186 18.8559 25.7323 17.7376 25.8487 17.7376C25.965 17.7376 26.3357 17.7964 26.5875 17.7376C26.8324 17.6805 30.1502 21.92 38.6547 19.2636C39.257 19.0747 39.8896 18.9938 40.5175 19.0488C40.5253 19.0492 40.5326 19.05 40.5399 19.0509C40.8698 19.0809 41.1796 18.8868 41.2976 18.5742C41.656 17.6271 42.2102 15.552 41.6984 12.643C41.6598 12.4258 41.7045 12.2019 41.8298 12.021C42.2128 11.4692 42.795 10.0063 40.3105 7.99053C40.1501 7.86051 40.0293 7.68858 39.9593 7.49307C39.6826 6.71842 38.7296 4.56592 36.203 2.76563C35.4446 2.22554 34.5453 1.71688 33.4796 1.28705C31.3634 0.432625 28.5916 -0.11175 24.9756 0.0194616C24.9756 0.0194616 24.5853 0.304508 24.7704 1.26157C24.8729 1.78856 25.1484 2.51916 25.7592 3.51765C25.8581 3.67887 25.9655 3.84676 26.0818 4.02202C26.0818 4.02202 26.8965 5.61133 23.5782 4.96408C23.2544 4.90074 22.8653 4.85383 22.4218 4.82715C20.8565 4.73095 18.6219 4.87978 16.2631 5.41963C12.2955 6.32716 8.73201 8.548 6.15422 11.7297C6.14409 11.7421 6.1342 11.7545 6.12407 11.7671C2.28622 16.5172 0 22.4915 0 28.9806C0 44.4551 13.0002 57 29.0362 57C35.3687 57 41.2278 55.0437 46 51.7229H42.0496L42.05 51.7234ZM30.7124 6.35431C32.9683 6.0795 35.0173 7.70453 35.2896 9.98538C35.5626 12.2658 33.9542 14.338 31.6983 14.6133C29.443 14.8886 27.3934 13.2631 27.1212 10.9827C26.8489 8.70184 28.4566 6.62959 30.7124 6.35407V6.35431Z" fill="#3FAF5A"/>
</svg>
