<svg width="19" height="19" viewBox="0 0 19 19" fill="none" xmlns="http://www.w3.org/2000/svg">
<path d="M9.5 0C12.0733 0 14.2834 0.850442 16.13 2.55109C18.0433 4.32107 19 6.52596 19 9.16527C19 12.0511 18.1117 14.4116 16.3357 16.2469C14.5594 18.0821 12.2809 19 9.5 19C6.71912 19 4.44009 18.0824 2.66429 16.2469C0.888021 14.4116 0 12.0511 0 9.16527C0 6.54126 0.967742 4.3402 2.90346 2.56257C4.75737 0.85427 6.95645 0 9.50023 0H9.5ZM9.5 4.49035C8.23179 4.49035 7.11567 4.94056 6.15162 5.84097C5.15046 6.77222 4.64977 7.88806 4.64977 9.18847C4.64977 10.666 5.09839 11.9127 5.99585 12.9285C6.92281 13.9829 8.09078 14.5099 9.5 14.5099C10.9092 14.5099 12.077 13.9829 13.0041 12.9285C13.9014 11.9127 14.3502 10.666 14.3502 9.18847C14.3502 7.88041 13.8498 6.76433 12.8486 5.84097C11.8846 4.94056 10.7684 4.49035 9.50023 4.49035H9.5Z" fill="#F2B705"/>
</svg>
