<svg width="13" height="19" viewBox="0 0 13 19" fill="none" xmlns="http://www.w3.org/2000/svg">
<path d="M13 0.911493V6.53196C12.076 5.2078 10.7855 4.54561 9.12866 4.54561C7.78688 4.54561 6.69614 5.02096 5.85668 5.97117C5.01698 6.92163 4.59736 8.11364 4.59736 9.54671C4.59736 10.9798 5.02245 12.1759 5.87308 13.0874C6.72348 13.9989 7.83085 14.4546 9.19449 14.4546C10.7269 14.4546 11.9954 13.8159 13 12.5382V18.1587C11.2915 18.7195 9.99364 19 9.10656 19C6.56219 19 4.41398 18.1001 2.66169 16.3009C0.88708 14.4779 0 12.219 0 9.52348C0 6.82797 0.835823 4.74431 2.50769 2.92133C4.29666 0.973939 6.44874 0 8.96372 0C10.2761 0 11.6215 0.303751 13 0.911493Z" fill="white"/>
</svg>
